<?xml version="1.0" encoding="UTF-8" standalone="no"?>
<!DOCTYPE svg PUBLIC "-//W3C//DTD SVG 1.1//EN" "http://www.w3.org/Graphics/SVG/1.1/DTD/svg11.dtd">
<!-- Generated by Microsoft Visio, SVG Export logo.svg Page-1 -->
<svg xmlns="http://www.w3.org/2000/svg" xmlns:xlink="http://www.w3.org/1999/xlink" xmlns:ev="http://www.w3.org/2001/xml-events"
		width="2.81029in" height="2.81029in" viewBox="0 0 202.341 202.341" xml:space="preserve" color-interpolation-filters="sRGB"
		class="st7">
	<style type="text/css">
	<![CDATA[
		.st1 {fill:none;stroke:#a5a5a5;stroke-linecap:round;stroke-linejoin:round;stroke-width:6}
		.st2 {stroke:#a5a5a5;stroke-linecap:round;stroke-linejoin:round;stroke-width:3}
		.st3 {stroke:#a5a5a5;stroke-linecap:round;stroke-linejoin:round;stroke-width:0.75}
		.st4 {fill:#a5a5a5;stroke:#a5a5a5;stroke-linecap:round;stroke-linejoin:round;stroke-width:0.24}
		.st5 {fill:none;stroke:none;stroke-linecap:round;stroke-linejoin:round;stroke-width:0.75}
		.st6 {fill:#ffffff;font-family:HGF9_CNKI;font-size:4.99999em;font-weight:bold}
		.st7 {fill:none;fill-rule:evenodd;font-size:12px;overflow:visible;stroke-linecap:square;stroke-miterlimit:3}
	]]>
	</style>

	<g>
		<title>Page-1</title>
		<g id="group16-1" transform="translate(27.1085,-15.6511)">
			<title>Sheet.16</title>
			<g id="shape1-2" transform="translate(-54.2171,42.7596) rotate(-30)">
				<title>Hexagon</title>
				<path d="M116.82 54.22 L31.3 54.22 L-11.46 128.28 L31.3 202.34 L116.82 202.34 L159.58 128.28 L116.82 54.22 Z"
						class="st1"/>
			</g>
			<g id="shape5-4" transform="translate(101.17,-101.17) rotate(30)">
				<title>Sheet.5</title>
				<path d="M0 202.34 L85.52 202.34" class="st2"/>
			</g>
			<g id="shape6-7" transform="translate(276.403,31.3022) rotate(90)">
				<title>Sheet.6</title>
				<path d="M0 202.34 L85.52 202.34" class="st3"/>
			</g>
			<g id="shape7-10" transform="translate(249.294,249.294) rotate(150)">
				<title>Sheet.7</title>
				<path d="M0 202.34 L85.52 202.34" class="st2"/>
			</g>
			<g id="shape8-13" transform="translate(46.9533,334.813) rotate(-150)">
				<title>Sheet.8</title>
				<path d="M0 202.34 L85.52 202.34" class="st3"/>
			</g>
			<g id="shape9-16" transform="translate(-128.279,202.341) rotate(-90)">
				<title>Sheet.9</title>
				<path d="M0 202.34 L85.52 202.34" class="st2"/>
			</g>
			<g id="shape10-19" transform="translate(-101.17,-15.6511) rotate(-30)">
				<title>Sheet.10</title>
				<path d="M0 202.34 L85.52 202.34" class="st3"/>
			</g>
			<g id="shape12-22" transform="translate(131.039,286.083) rotate(179.8)">
				<title>Triangle</title>
				<path d="M112.54 202.34 L56.59 100.49 L0 202.34 L112.54 202.34 Z" class="st4"/>
			</g>
			<g id="shape15-24" transform="translate(42.8808,-48.3307)">
				<title>Sheet.15</title>
				<desc>Z</desc>
				<rect x="0" y="142.246" width="62.3622" height="60.0945" class="st5"/>
				<text x="9.52" y="190.29" class="st6">Z</text>			</g>
		</g>
	</g>
</svg>
