<?xml version="1.0" encoding="UTF-8" standalone="no"?>
<!DOCTYPE svg PUBLIC "-//W3C//DTD SVG 1.1//EN" "http://www.w3.org/Graphics/SVG/1.1/DTD/svg11.dtd">
<!-- Generated by Microsoft Visio, SVG Export logo_pure.svg Page-1 -->
<svg xmlns="http://www.w3.org/2000/svg" xmlns:xlink="http://www.w3.org/1999/xlink" xmlns:ev="http://www.w3.org/2001/xml-events"
		xmlns:v="http://schemas.microsoft.com/visio/2003/SVGExtensions/" width="2.83465in" height="2.83465in"
		viewBox="0 0 204.094 204.094" xml:space="preserve" color-interpolation-filters="sRGB" class="st10">
	<v:documentProperties v:langID="2052" v:metric="true" v:viewMarkup="false">
		<v:userDefs>
			<v:ud v:nameU="msvNoAutoConnect" v:val="VT0(1):26"/>
		</v:userDefs>
	</v:documentProperties>

	<style type="text/css">
	<![CDATA[
		.st1 {fill:none;stroke:#a5a5a5;stroke-linecap:round;stroke-linejoin:round;stroke-width:6}
		.st2 {stroke:#a5a5a5;stroke-linecap:round;stroke-linejoin:round;stroke-width:3}
		.st3 {stroke:#a5a5a5;stroke-linecap:round;stroke-linejoin:round;stroke-width:0.75}
		.st4 {fill:#a5a5a5;stroke:#a5a5a5;stroke-linecap:round;stroke-linejoin:round;stroke-width:0.24}
		.st5 {fill:none;stroke:none;stroke-linecap:round;stroke-linejoin:round;stroke-width:0.75}
		.st6 {fill:#ffffff;font-family:HGF9_CNKI;font-size:4.99999em;font-weight:bold}
		.st7 {stroke:#000000;stroke-linecap:round;stroke-linejoin:round;stroke-width:0.75}
		.st8 {fill:#ffffff;stroke:#000000;stroke-linecap:round;stroke-linejoin:round;stroke-width:0.75}
		.st9 {fill:#bfbfbf;stroke:none;stroke-linecap:round;stroke-linejoin:round;stroke-width:0.75}
		.st10 {fill:none;fill-rule:evenodd;font-size:12px;overflow:visible;stroke-linecap:square;stroke-miterlimit:3}
	]]>
	</style>

	<g v:mID="0" v:index="1" v:groupContext="foregroundPage">
		<title>Page-1</title>
		<v:pageProperties v:drawingScale="0.0393701" v:pageScale="0.0393701" v:drawingUnits="24" v:shadowOffsetX="8.50394"
				v:shadowOffsetY="-8.50394"/>
		<g id="shape135-151" v:mID="135" v:groupContext="shape" transform="translate(25.5757,-14.1732)">
			<title>Sheet.135</title>
			<path d="M153.58 159.22 L76.83 204.09 L0 159.22 L0 70.43 L76.83 25.63 L153.58 70.18 L153.58 159.22 ZM148.01 155.22 L105.95
						 130.95 L131.08 85.34 L147.9 75.4 L148.01 155.22 ZM131.17 81.68 L77.37 81.87 L77.37 32.79 L146.2 72.79 L131.17
						 81.68 ZM147.46 156.21 L78.41 196.09 L78.41 180.92 L105.4 131.94 L147.46 156.21 ZM76.47 81.87 L23.89 82.05
						 L7.31 72.57 L76.47 32.8 L76.47 81.87 ZM75.2 196.06 L6.21 156.16 L48.14 131.85 L75.2 180.7 L75.2 196.06 ZM58.9
						 95.81 L58.81 107.72 L77.32 107.72 L58.4 128.98 L58.4 139.78 L96.67 139.78 L96.67 127.98 L76.47 127.98 L95.71
						 106.3 L95.71 95.81 L58.9 95.81 ZM47.61 130.89 L22.32 85.24 L5.74 75.75 L5.78 155.14 L47.61 130.89 Z"
					class="st9"/>
		</g>
	</g>
</svg>
